M48
; DRILL file {KiCad (5.1.9)-1} date 02/24/21 20:04:12
; FORMAT={-:-/ absolute / metric / decimal}
; #@! TF.CreationDate,2021-02-24T20:04:12-03:00
; #@! TF.GenerationSoftware,Kicad,Pcbnew,(5.1.9)-1
FMAT,2
METRIC
T1C0.700
T2C0.800
T3C0.950
T4C1.000
T5C1.100
T6C1.300
T7C1.520
T8C1.600
%
G90
G05
T1
X88.0Y-74.0
X88.0Y-95.0
X90.54Y-76.54
X90.54Y-97.54
X93.08Y-74.0
X93.08Y-95.0
T2
X73.5Y-55.5
X73.5Y-61.0
X77.67Y-56.26
X77.67Y-58.26
X83.67Y-56.01
X83.67Y-58.51
X85.46Y-83.5
X85.46Y-104.5
X89.67Y-56.26
X89.67Y-58.26
X95.62Y-83.5
X95.62Y-104.5
X100.5Y-62.0
X100.5Y-68.0
X121.5Y-84.0
X121.5Y-86.5
X123.0Y-90.5
X123.0Y-97.5
X129.84Y-100.0
X130.54Y-50.48
X133.6Y-53.23
X140.0Y-100.0
X144.84Y-100.0
X147.5Y-77.5
X147.5Y-88.5
X155.0Y-100.0
X179.34Y-64.5
X189.5Y-64.5
X193.0Y-100.5
X194.0Y-50.5
X194.0Y-54.5
X194.3Y-92.25
X198.0Y-106.0
X198.19Y-89.29
T3
X112.5Y-79.0
X112.5Y-81.5
X112.5Y-84.0
X112.5Y-86.5
X123.98Y-56.06
X123.98Y-66.56
X126.48Y-56.06
X126.48Y-66.56
X128.98Y-56.06
X128.98Y-66.56
X129.0Y-79.0
X129.0Y-81.5
X129.0Y-84.0
X129.0Y-86.5
X164.5Y-56.0
X167.0Y-56.0
X169.5Y-56.0
X172.0Y-56.0
X174.5Y-56.0
X181.0Y-56.0
X183.5Y-56.0
X186.0Y-56.0
T4
X59.45Y-69.95
X59.45Y-92.95
X71.45Y-69.95
X71.45Y-92.95
X71.5Y-51.0
X76.5Y-51.0
X137.76Y-54.94
X137.76Y-57.48
X137.76Y-60.02
X137.76Y-62.56
X137.76Y-65.1
X137.76Y-67.64
X137.76Y-70.18
X137.76Y-72.72
X137.76Y-75.26
X137.76Y-77.8
X137.76Y-80.34
X137.76Y-82.88
X137.76Y-85.42
X137.76Y-87.96
X137.76Y-90.5
X153.0Y-54.94
X153.0Y-57.48
X153.0Y-60.02
X153.0Y-62.56
X153.0Y-65.1
X153.0Y-67.64
X153.0Y-70.18
X153.0Y-72.72
X153.0Y-75.26
X153.0Y-77.8
X153.0Y-80.34
X153.0Y-82.88
X153.0Y-85.42
X153.0Y-87.96
X153.0Y-90.5
X168.0Y-94.35
X168.0Y-96.89
X168.0Y-99.43
X168.0Y-101.97
X168.0Y-104.51
X168.0Y-107.05
X182.6Y-69.87
X182.63Y-86.36
X185.14Y-69.87
X185.17Y-86.36
X187.68Y-69.87
X187.71Y-86.36
X188.0Y-94.3
X188.0Y-96.84
X188.0Y-99.38
X188.0Y-101.92
X188.0Y-104.46
X188.0Y-107.0
X190.22Y-69.87
X190.25Y-86.36
X192.76Y-69.87
X192.79Y-86.36
X195.3Y-69.87
X195.33Y-86.36
X197.84Y-69.87
X197.87Y-86.36
X197.99Y-94.35
X197.99Y-96.89
X198.0Y-55.0
X198.0Y-57.54
X198.0Y-60.08
X200.38Y-69.87
X200.41Y-86.36
T5
X79.0Y-67.8
X79.0Y-77.96
X79.0Y-90.8
X79.0Y-100.96
X104.12Y-56.5
X106.66Y-56.5
X109.2Y-56.5
X129.84Y-104.5
X140.0Y-104.5
X144.84Y-104.5
X155.0Y-104.5
T6
X59.45Y-82.15
X59.45Y-105.15
X65.5Y-68.0
X65.5Y-91.0
X71.5Y-82.2
X71.5Y-105.2
T7
X101.42Y-107.0
X106.5Y-107.0
X116.92Y-107.0
X122.0Y-107.0
T8
X56.5Y-56.5
T4
G00X59.25Y-52.0
M15
G01X57.75Y-52.0
M16
G05
G00X59.25Y-61.0
M15
G01X57.75Y-61.0
M16
G05
G00X59.5Y-55.85
M15
G01X59.5Y-57.15
M16
G05
G00X65.5Y-55.5
M15
G01X65.5Y-57.5
M16
G05
T0
M30
