%TF.GenerationSoftware,KiCad,Pcbnew,(5.1.9)-1*%
%TF.CreationDate,2021-02-24T20:02:18-03:00*%
%TF.ProjectId,Genesis,47656e65-7369-4732-9e6b-696361645f70,rev?*%
%TF.SameCoordinates,Original*%
%TF.FileFunction,Soldermask,Bot*%
%TF.FilePolarity,Negative*%
%FSLAX46Y46*%
G04 Gerber Fmt 4.6, Leading zero omitted, Abs format (unit mm)*
G04 Created by KiCad (PCBNEW (5.1.9)-1) date 2021-02-24 20:02:18*
%MOMM*%
%LPD*%
G01*
G04 APERTURE LIST*
%ADD10R,1.700000X1.700000*%
%ADD11O,1.700000X1.700000*%
%ADD12O,1.700000X1.950000*%
%ADD13C,1.600000*%
%ADD14C,3.000000*%
%ADD15R,3.000000X3.000000*%
%ADD16R,1.600000X1.600000*%
%ADD17O,1.600000X1.600000*%
%ADD18R,2.200000X2.200000*%
%ADD19O,2.200000X2.200000*%
%ADD20O,1.950000X1.700000*%
%ADD21C,2.500000*%
%ADD22O,1.600000X1.200000*%
%ADD23O,1.200000X1.200000*%
%ADD24R,1.905000X2.000000*%
%ADD25O,1.905000X2.000000*%
%ADD26R,2.000000X4.000000*%
%ADD27O,2.000000X3.300000*%
%ADD28O,3.500000X2.000000*%
G04 APERTURE END LIST*
D10*
%TO.C,J1*%
X197990000Y-94350000D03*
D11*
X197990000Y-96890000D03*
%TD*%
D10*
%TO.C,J17*%
X76500000Y-51000000D03*
%TD*%
D12*
%TO.C,J16*%
X181000000Y-56000000D03*
X183500000Y-56000000D03*
G36*
G01*
X186850000Y-55275000D02*
X186850000Y-56725000D01*
G75*
G02*
X186600000Y-56975000I-250000J0D01*
G01*
X185400000Y-56975000D01*
G75*
G02*
X185150000Y-56725000I0J250000D01*
G01*
X185150000Y-55275000D01*
G75*
G02*
X185400000Y-55025000I250000J0D01*
G01*
X186600000Y-55025000D01*
G75*
G02*
X186850000Y-55275000I0J-250000D01*
G01*
G37*
%TD*%
D10*
%TO.C,J6*%
X71500000Y-51000000D03*
%TD*%
%TO.C,J10*%
G36*
G01*
X129830000Y-65835000D02*
X129830000Y-67285000D01*
G75*
G02*
X129580000Y-67535000I-250000J0D01*
G01*
X128380000Y-67535000D01*
G75*
G02*
X128130000Y-67285000I0J250000D01*
G01*
X128130000Y-65835000D01*
G75*
G02*
X128380000Y-65585000I250000J0D01*
G01*
X129580000Y-65585000D01*
G75*
G02*
X129830000Y-65835000I0J-250000D01*
G01*
G37*
D12*
X126480000Y-66560000D03*
X123980000Y-66560000D03*
%TD*%
D13*
%TO.C,C4*%
X121500000Y-84000000D03*
X121500000Y-86500000D03*
%TD*%
D14*
%TO.C,J14*%
X101420000Y-107000000D03*
D15*
X106500000Y-107000000D03*
%TD*%
D14*
%TO.C,J13*%
X116920000Y-107000000D03*
D15*
X122000000Y-107000000D03*
%TD*%
D12*
%TO.C,J9*%
X123980000Y-56060000D03*
X126480000Y-56060000D03*
G36*
G01*
X129830000Y-55335000D02*
X129830000Y-56785000D01*
G75*
G02*
X129580000Y-57035000I-250000J0D01*
G01*
X128380000Y-57035000D01*
G75*
G02*
X128130000Y-56785000I0J250000D01*
G01*
X128130000Y-55335000D01*
G75*
G02*
X128380000Y-55085000I250000J0D01*
G01*
X129580000Y-55085000D01*
G75*
G02*
X129830000Y-55335000I0J-250000D01*
G01*
G37*
%TD*%
D11*
%TO.C,J7*%
X198000000Y-60080000D03*
X198000000Y-57540000D03*
D10*
X198000000Y-55000000D03*
%TD*%
D16*
%TO.C,A1*%
X153000000Y-90500000D03*
D17*
X137760000Y-57480000D03*
X153000000Y-87960000D03*
X137760000Y-60020000D03*
X153000000Y-85420000D03*
X137760000Y-62560000D03*
X153000000Y-82880000D03*
X137760000Y-65100000D03*
X153000000Y-80340000D03*
X137760000Y-67640000D03*
X153000000Y-77800000D03*
X137760000Y-70180000D03*
X153000000Y-75260000D03*
X137760000Y-72720000D03*
X153000000Y-72720000D03*
X137760000Y-75260000D03*
X153000000Y-70180000D03*
X137760000Y-77800000D03*
X153000000Y-67640000D03*
X137760000Y-80340000D03*
X153000000Y-65100000D03*
X137760000Y-82880000D03*
X153000000Y-62560000D03*
X137760000Y-85420000D03*
X153000000Y-60020000D03*
X137760000Y-87960000D03*
X153000000Y-57480000D03*
X137760000Y-90500000D03*
X153000000Y-54940000D03*
X137760000Y-54940000D03*
%TD*%
D11*
%TO.C,J15*%
X182600000Y-69870000D03*
X185140000Y-69870000D03*
X187680000Y-69870000D03*
X190220000Y-69870000D03*
X192760000Y-69870000D03*
X195300000Y-69870000D03*
X197840000Y-69870000D03*
D10*
X200380000Y-69870000D03*
%TD*%
D11*
%TO.C,J8*%
X200410000Y-86360000D03*
X197870000Y-86360000D03*
X195330000Y-86360000D03*
X192790000Y-86360000D03*
X190250000Y-86360000D03*
X187710000Y-86360000D03*
X185170000Y-86360000D03*
D10*
X182630000Y-86360000D03*
%TD*%
D11*
%TO.C,J4*%
X168000000Y-107050000D03*
X168000000Y-104510000D03*
X168000000Y-101970000D03*
X168000000Y-99430000D03*
X168000000Y-96890000D03*
D10*
X168000000Y-94350000D03*
%TD*%
D11*
%TO.C,J3*%
X188000000Y-94300000D03*
X188000000Y-96840000D03*
X188000000Y-99380000D03*
X188000000Y-101920000D03*
X188000000Y-104460000D03*
D10*
X188000000Y-107000000D03*
%TD*%
D18*
%TO.C,D3*%
X79000000Y-90800000D03*
D19*
X79000000Y-100960000D03*
%TD*%
D13*
%TO.C,C3*%
X83670000Y-56010000D03*
X83670000Y-58510000D03*
%TD*%
%TO.C,C1*%
X77670000Y-56260000D03*
X77670000Y-58260000D03*
%TD*%
%TO.C,C2*%
X89670000Y-58260000D03*
X89670000Y-56260000D03*
%TD*%
D18*
%TO.C,D1*%
X140000000Y-104500000D03*
D19*
X129840000Y-104500000D03*
%TD*%
%TO.C,D2*%
X144840000Y-104500000D03*
D18*
X155000000Y-104500000D03*
%TD*%
D19*
%TO.C,D4*%
X79000000Y-77960000D03*
D18*
X79000000Y-67800000D03*
%TD*%
%TO.C,J5*%
G36*
G01*
X175350000Y-55275000D02*
X175350000Y-56725000D01*
G75*
G02*
X175100000Y-56975000I-250000J0D01*
G01*
X173900000Y-56975000D01*
G75*
G02*
X173650000Y-56725000I0J250000D01*
G01*
X173650000Y-55275000D01*
G75*
G02*
X173900000Y-55025000I250000J0D01*
G01*
X175100000Y-55025000D01*
G75*
G02*
X175350000Y-55275000I0J-250000D01*
G01*
G37*
D12*
X172000000Y-56000000D03*
X169500000Y-56000000D03*
X167000000Y-56000000D03*
X164500000Y-56000000D03*
%TD*%
%TO.C,J11*%
G36*
G01*
X129725000Y-87350000D02*
X128275000Y-87350000D01*
G75*
G02*
X128025000Y-87100000I0J250000D01*
G01*
X128025000Y-85900000D01*
G75*
G02*
X128275000Y-85650000I250000J0D01*
G01*
X129725000Y-85650000D01*
G75*
G02*
X129975000Y-85900000I0J-250000D01*
G01*
X129975000Y-87100000D01*
G75*
G02*
X129725000Y-87350000I-250000J0D01*
G01*
G37*
D20*
X129000000Y-84000000D03*
X129000000Y-81500000D03*
X129000000Y-79000000D03*
%TD*%
%TO.C,J12*%
X112500000Y-79000000D03*
X112500000Y-81500000D03*
X112500000Y-84000000D03*
G36*
G01*
X113225000Y-87350000D02*
X111775000Y-87350000D01*
G75*
G02*
X111525000Y-87100000I0J250000D01*
G01*
X111525000Y-85900000D01*
G75*
G02*
X111775000Y-85650000I250000J0D01*
G01*
X113225000Y-85650000D01*
G75*
G02*
X113475000Y-85900000I0J-250000D01*
G01*
X113475000Y-87100000D01*
G75*
G02*
X113225000Y-87350000I-250000J0D01*
G01*
G37*
%TD*%
D21*
%TO.C,K1*%
X59450000Y-92950000D03*
D14*
X59450000Y-105150000D03*
X71500000Y-105200000D03*
D21*
X71450000Y-92950000D03*
D14*
X65500000Y-91000000D03*
%TD*%
%TO.C,K2*%
X65500000Y-68000000D03*
D21*
X71450000Y-69950000D03*
D14*
X71500000Y-82200000D03*
X59450000Y-82150000D03*
D21*
X59450000Y-69950000D03*
%TD*%
D22*
%TO.C,Q1*%
X88000000Y-95000000D03*
D23*
X90540000Y-97540000D03*
X93080000Y-95000000D03*
%TD*%
%TO.C,Q2*%
X93080000Y-74000000D03*
X90540000Y-76540000D03*
D22*
X88000000Y-74000000D03*
%TD*%
D13*
%TO.C,R1*%
X140000000Y-100000000D03*
D17*
X129840000Y-100000000D03*
%TD*%
D13*
%TO.C,R2*%
X189500000Y-64500000D03*
D17*
X179340000Y-64500000D03*
%TD*%
%TO.C,R3*%
X155000000Y-100000000D03*
D13*
X144840000Y-100000000D03*
%TD*%
%TO.C,R4*%
X95620000Y-104500000D03*
D17*
X85460000Y-104500000D03*
%TD*%
%TO.C,R5*%
X85460000Y-83500000D03*
D13*
X95620000Y-83500000D03*
%TD*%
D24*
%TO.C,U1*%
X104120000Y-56500000D03*
D25*
X106660000Y-56500000D03*
X109200000Y-56500000D03*
%TD*%
D26*
%TO.C,J2*%
X65500000Y-56500000D03*
D27*
X59500000Y-56500000D03*
D28*
X58500000Y-52000000D03*
X58500000Y-61000000D03*
D13*
X56500000Y-56500000D03*
%TD*%
M02*
